<svg xmlns="http://www.w3.org/2000/svg" viewBox="0 0 512 512" width="32" height="32">
  <!-- Motorcycle Silhouette -->
  <path d="M400 256c-26.5 0-48 21.5-48 48 0 26.5 21.5 48 48 48 26.5 0 48-21.5 48-48 0-26.5-21.5-48-48-48zm-288 0c-26.5 0-48 21.5-48 48 0 26.5 21.5 48 48 48 26.5 0 48-21.5 48-48 0-26.5-21.5-48-48-48zm288-64c-56 0-103.5 39.5-116.5 92.5-7-7-16-12.5-26.5-12.5h-54c-11.5 0-21.5 8-24 19-3.5 15.5 8 30 24 30h28.5l-20.5 48h-68l-18-48h-48v32h32l10 26.5c-35.5 8.5-62 40-62 77.5 0 44 36 80 80 80 34.5 0 64.5-22 75-53.5 5 1.5 10 2.5 15.5 2.5h80c5.5 0 10.5-1 15.5-2.5 10.5 31.5 40.5 53.5 75 53.5 44 0 80-36 80-80 0-38.5-27.5-70.5-64.5-78l2.5-10v-32c0-24-21-44-46-44zm-288 192c-26.5 0-48-21.5-48-48 0-26.5 21.5-48 48-48 26.5 0 48 21.5 48 48 0 26.5-21.5 48-48 48zm33.5-160h48c8.5 0 16-7 16-16v-16l-32-64h-32l-32 64v16c0 9 7.5 16 16 16zm254.5 160c-26.5 0-48-21.5-48-48 0-26.5 21.5-48 48-48 26.5 0 48 21.5 48 48 0 26.5-21.5 48-48 48z" fill="#e11d48"/>
</svg>
